<?xml version="1.0" encoding="iso-8859-1"?>
<!-- Uploaded to: SVG Repo, www.svgrepo.com, Generator: SVG Repo Mixer Tools -->
<svg version="1.1" id="Layer_1" xmlns="http://www.w3.org/2000/svg" xmlns:xlink="http://www.w3.org/1999/xlink" 
	 viewBox="0 0 512 512" xml:space="preserve">
<circle style="fill:#FFEDB5;" cx="256" cy="256" r="256"/>
<path style="fill:#FEE187;" d="M507.682,209.015L369.778,71.111L142.222,440.889l66.793,66.793C224.247,510.507,239.949,512,256,512
	c141.384,0,256-114.616,256-256C512,239.949,510.507,224.247,507.682,209.015z"/>
<rect x="142.222" y="71.111" style="fill:#940030;" width="227.556" height="369.778"/>
<rect x="253.707" y="71.111" style="fill:#75002A;" width="116.071" height="369.778"/>
<g>
	<rect x="156.444" y="85.333" style="fill:#FF7F4F;" width="199.111" height="85.333"/>
	<rect x="156.444" y="199.111" style="fill:#FF7F4F;" width="199.111" height="85.333"/>
	<rect x="156.444" y="312.889" style="fill:#FF7F4F;" width="199.111" height="85.333"/>
</g>
<g>
	<rect x="253.707" y="85.333" style="fill:#E0572D;" width="101.848" height="85.333"/>
	<rect x="253.707" y="199.111" style="fill:#E0572D;" width="101.848" height="85.333"/>
	<rect x="253.707" y="312.889" style="fill:#E0572D;" width="101.848" height="85.333"/>
</g>
<g>
	<rect x="192.198" y="113.778" style="fill:#366695;" width="20.687" height="56.889"/>
	<rect x="170.667" y="341.333" style="fill:#366695;" width="20.687" height="56.889"/>
	<rect x="199.111" y="341.333" style="fill:#366695;" width="20.687" height="56.889"/>
	<rect x="227.556" y="341.333" style="fill:#366695;" width="20.687" height="56.889"/>
</g>
<g>
	<rect x="169.805" y="105.158" style="fill:#273B7A;" width="20.687" height="65.508"/>
	<rect x="320.646" y="218.936" style="fill:#273B7A;" width="20.687" height="65.508"/>
	<rect x="292.202" y="218.936" style="fill:#273B7A;" width="20.687" height="65.508"/>
	<rect x="263.758" y="218.936" style="fill:#273B7A;" width="20.687" height="65.508"/>
</g>
<rect x="224.529" y="112.049" transform="matrix(-0.9113 0.4118 -0.4118 -0.9113 506.7601 171.8045)" style="fill:#366695;" width="20.687" height="56.89"/>
</svg>